<svg width="32" height="32" viewBox="0 0 32 32" fill="none" xmlns="http://www.w3.org/2000/svg">
<path d="M8.72712 16.75H14.8544V22.8772C14.8544 23.5 15.3666 24.0223 15.9994 24.0223C16.6323 24.0223 17.1445 23.5 17.1445 22.8772V16.75H23.2718C23.8945 16.75 24.4169 16.2377 24.4169 15.6049C24.4169 14.9721 23.8945 14.4598 23.2718 14.4598H17.1445V8.33259C17.1445 7.70982 16.6323 7.1875 15.9994 7.1875C15.3666 7.1875 14.8544 7.70982 14.8544 8.33259V14.4598H8.72712C8.10435 14.4598 7.58203 14.9721 7.58203 15.6049C7.58203 16.2377 8.10435 16.75 8.72712 16.75Z" fill="#141213"/>
</svg>
