<svg width="32" height="32" viewBox="0 0 32 32" fill="none" xmlns="http://www.w3.org/2000/svg">
<g id="icon/arrow.up">
<path id="arrow.up" d="M16 25.1473C16.6529 25.1473 17.1149 24.6853 17.1149 24.0223V11.6172L17.0346 9.44755L19.6361 12.3505L21.9263 14.6205C22.1272 14.8214 22.4084 14.952 22.7198 14.952C23.3326 14.952 23.7946 14.49 23.7946 13.8571C23.7946 13.5659 23.6841 13.2946 23.443 13.0536L16.8236 6.42411C16.6026 6.19308 16.3013 6.07255 16 6.07255C15.6886 6.07255 15.3872 6.19308 15.1663 6.42411L8.55688 13.0536C8.31581 13.2946 8.20532 13.5659 8.20532 13.8571C8.20532 14.49 8.65733 14.952 9.27005 14.952C9.59148 14.952 9.87273 14.8214 10.0736 14.6205L12.3538 12.3505L14.9654 9.4375L14.875 11.6172V24.0223C14.875 24.6853 15.337 25.1473 16 25.1473Z" fill="white"/>
</g>
</svg>
