<svg width="24" height="24" viewBox="0 0 24 24" fill="none" xmlns="http://www.w3.org/2000/svg">
<path d="M12.2963 16.844C12.56 16.8365 12.786 16.7386 12.9894 16.5352L18.7224 10.6741C18.8881 10.5008 18.9785 10.2974 18.9785 10.0488C18.9785 9.54408 18.5868 9.15234 18.082 9.15234C17.841 9.15234 17.615 9.25028 17.4417 9.42355L12.2963 14.697L7.15095 9.42355C6.97768 9.25028 6.75921 9.15234 6.5106 9.15234C6.00586 9.15234 5.61412 9.54408 5.61412 10.0488C5.61412 10.2899 5.70452 10.5008 5.87026 10.6741L11.6108 16.5352C11.8066 16.7461 12.0326 16.844 12.2963 16.844Z" fill="#1C1C1E"/>
</svg>
