<svg width="240" height="40" viewBox="0 0 240 40" fill="none" xmlns="http://www.w3.org/2000/svg">
<g id="logo">
<g id="logo_2">
<path d="M0 22.1639V22.6947H7.47598V22.1639L5.13656 21.7847V12.3057H14.7994V21.7847L12.4345 22.1639V22.6947H19.9614V22.1639L17.5965 21.7847V3.38273L19.9614 3.02884V2.47274H12.4345V3.02884L14.7994 3.38273V11.6737H5.13656V3.38273L7.47598 3.02884V2.47274H0V3.02884L2.33942 3.38273V21.7847L0 22.1639Z" fill="#141213"/>
<path d="M42.6847 6.18851C43.0237 6.5087 43.4306 6.66879 43.9052 6.66879C44.363 6.66879 44.7529 6.5087 45.075 6.18851C45.397 5.85148 45.5581 5.44704 45.5581 4.9752C45.5581 4.50335 45.397 4.10734 45.075 3.78716C44.7529 3.46698 44.363 3.30689 43.9052 3.30689C43.4136 3.30689 42.9983 3.46698 42.6592 3.78716C42.3372 4.10734 42.1761 4.50335 42.1761 4.9752C42.1761 5.44704 42.3456 5.85148 42.6847 6.18851Z" fill="#141213"/>
<path d="M41.2098 22.1891V22.6947H47.3127V22.1891L45.5327 21.9364V9.62624H41.2098V10.1318L42.9898 10.3846V21.9364L41.2098 22.1891Z" fill="#141213"/>
<path d="M52.8576 21.9364L51.0776 22.1891V22.6947H57.4348V22.1891L55.4005 21.9364V12.4826C55.8752 11.7917 56.299 11.2861 56.6719 10.966C57.0449 10.6289 57.4093 10.4604 57.7653 10.4604C58.0874 10.4604 58.3417 10.5531 58.5282 10.7385C58.7316 10.907 58.8333 11.1345 58.8333 11.421C58.8333 11.6906 58.7401 11.9434 58.5536 12.1793C58.8927 12.6006 59.3334 12.8112 59.8759 12.8112C60.3506 12.8112 60.732 12.668 61.0202 12.3815C61.3084 12.0782 61.4525 11.7074 61.4525 11.2693C61.4525 10.6626 61.2067 10.1992 60.715 9.87903C60.2234 9.542 59.6555 9.37348 59.0113 9.37348C57.6721 9.37348 56.4685 10.0981 55.4005 11.5473V9.60098H51.0776V10.1065L52.8576 10.3593V21.9364Z" fill="#141213"/>
<path fill-rule="evenodd" clip-rule="evenodd" d="M28.4095 22.9475C27.3246 22.9475 26.4346 22.6694 25.7395 22.1133C25.0445 21.5403 24.697 20.6978 24.697 19.5856C24.697 18.0015 25.3666 16.8809 26.7058 16.2237C28.0451 15.5496 29.5962 15.2126 31.3592 15.2126H33.063V13.2662C33.063 12.3899 32.9612 11.7159 32.7578 11.244C32.5713 10.7553 32.2747 10.4183 31.8678 10.2329C31.461 10.0307 30.91 9.92958 30.215 9.92958C29.4182 9.92958 28.8249 10.0897 28.435 10.4099C28.0451 10.7132 27.8501 11.126 27.8501 11.6484C27.8501 12.1371 28.0874 12.4573 28.5621 12.609C28.5621 13.0303 28.4011 13.401 28.079 13.7212C27.7569 14.0414 27.3754 14.2015 26.9347 14.2015C26.46 14.2015 26.0786 14.0751 25.7904 13.8223C25.5022 13.5527 25.3581 13.1482 25.3581 12.609C25.3581 11.6316 25.8497 10.848 26.833 10.2582C27.8162 9.66838 29.0452 9.37348 30.5201 9.37348C33.9106 9.37348 35.6058 10.8396 35.6058 13.7718V21.0011C35.6058 21.3718 35.6821 21.6583 35.8347 21.8605C36.0042 22.0459 36.2415 22.1386 36.5467 22.1386C36.8348 22.1386 37.0637 22.0459 37.2332 21.8605C37.4027 21.6583 37.4875 21.3887 37.4875 21.0517H38.0215C38.0215 21.6415 37.8266 22.1049 37.4367 22.4419C37.0637 22.7789 36.5382 22.9475 35.8601 22.9475C35.0803 22.9475 34.4191 22.7284 33.8767 22.2902C33.3511 21.8353 33.0799 21.1359 33.063 20.1922C32.6561 21.0517 32.0289 21.7257 31.1812 22.2144C30.3506 22.7031 29.4267 22.9475 28.4095 22.9475ZM29.8081 21.8353C30.2658 21.8353 30.732 21.7004 31.2067 21.4308C31.6983 21.1612 32.1136 20.7736 32.4527 20.268C32.7917 19.7456 32.9951 19.1221 33.063 18.3975V15.7687H31.3592C29.9692 15.7687 28.9266 16.0804 28.2315 16.7039C27.5534 17.3106 27.2144 18.17 27.2144 19.2822C27.2144 20.2091 27.4348 20.8663 27.8755 21.2539C28.3163 21.6415 28.9605 21.8353 29.8081 21.8353Z" fill="#141213"/>
<path d="M75.9787 4.17366C76.3139 5.2678 77.6516 5.83453 78.3797 5.6157C79.1692 5.37853 79.9018 4.18938 79.5672 3.09524C79.232 2.0011 78.1575 1.3551 77.1663 1.6532C76.1757 1.95131 75.6441 3.07952 75.9787 4.17366ZM75.5152 4.31321C75.0933 2.93603 75.7625 1.51561 77.0096 1.14085C78.2567 0.766092 79.6089 1.57851 80.0308 2.95569C80.2972 3.82576 80.0268 4.7417 79.5414 5.3746C79.2525 5.75132 79.2036 6.26695 79.4383 6.67971C79.6439 7.04071 80.0175 7.42202 80.6649 7.77909L80.6715 7.77713C81.0557 7.91733 81.7817 8.03854 82.398 8.1794C82.398 8.1794 83.251 9.2172 84.5179 10.7831L83.5452 12.0141C83.5062 12.0646 83.4685 12.1124 83.4295 12.1629L79.7636 8.05296L79.7577 8.05492L78.1456 6.44319C77.9889 6.2866 77.7931 6.17129 77.5769 6.12019C76.7365 5.92364 75.8127 5.28418 75.5152 4.31321ZM95.3265 25.4996L84.8472 13.751L85.9178 12.5186C89.9176 17.5026 95.835 25.0541 95.3265 25.4996ZM93.2132 0.652092C93.6549 0.414918 94.3829 0.475195 94.1138 0.173159C93.8447 -0.128877 93.2991 -0.0554977 92.7761 0.549885C92.5632 0.796231 92.388 0.977714 92.2835 1.08123C92.2379 1.06485 92.1929 1.04716 92.1459 1.0334C90.8942 0.675678 89.5526 1.50579 89.1499 2.88886C88.886 3.79497 89.2008 4.74235 89.7291 5.36936C90.0306 5.72708 90.0822 6.23615 89.864 6.64957C89.6676 7.02171 89.292 7.40302 88.6169 7.73257C88.2347 7.87802 87.5113 8.0084 86.8964 8.15713L83.7344 12.1596C79.8046 17.1802 73.6716 25.1943 74.1986 25.6438L89.5308 7.99399L91.1534 6.32657C91.2982 6.17719 91.4794 6.06384 91.6811 6.01077C92.5096 5.79391 93.4036 5.14725 93.6833 4.18545C94.0232 3.01793 93.5835 1.83272 92.6855 1.27582C92.6491 1.10154 92.8548 0.844058 93.2132 0.652092ZM93.2178 4.05245C92.8978 5.15118 91.568 5.7356 90.8374 5.5266C90.0445 5.29991 89.2953 4.12059 89.6154 3.02186C89.9354 1.92313 91.0013 1.26337 91.9958 1.54772C92.9903 1.83206 93.5378 2.95372 93.2178 4.05245Z" fill="#141213"/>
<path d="M113.072 3.38273L120.65 22.9475H121.107L128.634 4.14105V21.7847L126.295 22.1639V22.6947H133.771V22.1639L131.431 21.7847V3.38273L133.771 3.02884V2.47274H128.634L122.125 18.7008L115.742 2.47274H110.122V3.02884L112.462 3.38273V21.1528L110.072 22.1639V22.6947H115.513V22.1639L113.072 21.1528V3.38273Z" fill="#141213"/>
<path d="M223.25 22.9475C222.131 22.9475 221.232 22.6694 220.554 22.1133C219.893 21.5572 219.562 20.6725 219.562 19.4592V10.3593L217.757 10.1066V9.601H219.562V7.50298L222.105 6.87104V9.601H225.411V10.1066L222.105 10.3593V19.4086C222.105 21.1949 222.749 22.0881 224.038 22.0881C224.309 22.0881 224.563 22.0459 224.801 21.9617C225.055 21.8774 225.25 21.7931 225.386 21.7089C225.538 21.6246 225.631 21.5657 225.665 21.5319L225.996 21.9364C225.233 22.6105 224.318 22.9475 223.25 22.9475Z" fill="#141213"/>
<path d="M234.264 22.9475C232.874 22.9475 231.713 22.6526 230.78 22.0627C229.848 21.4729 229.382 20.7062 229.382 19.7625C229.382 19.2738 229.509 18.8946 229.763 18.625C230.034 18.3385 230.39 18.1953 230.831 18.1953C231.17 18.1953 231.458 18.2796 231.696 18.4481C231.933 18.6166 232.102 18.8525 232.204 19.1558C231.831 19.5603 231.645 19.99 231.645 20.445C231.645 20.9674 231.882 21.4224 232.357 21.81C232.831 22.1976 233.467 22.3914 234.264 22.3914C235.332 22.3914 236.205 22.1554 236.883 21.6836C237.561 21.1949 237.9 20.5461 237.9 19.7372C237.9 19.2654 237.756 18.9115 237.468 18.6756C237.18 18.4396 236.62 18.17 235.79 17.8667L231.95 16.4764C230.441 15.9372 229.687 14.9345 229.687 13.4684C229.687 12.272 230.102 11.2946 230.933 10.5362C231.763 9.76107 232.908 9.37348 234.366 9.37348C235.569 9.37348 236.595 9.65153 237.442 10.2076C238.307 10.7469 238.739 11.5221 238.739 12.5332C238.739 12.9376 238.629 13.2662 238.409 13.519C238.188 13.7549 237.9 13.8729 237.544 13.8729C237.188 13.8729 236.891 13.7802 236.654 13.5948C236.434 13.3926 236.324 13.123 236.324 12.7859C236.544 12.6174 236.697 12.4405 236.781 12.2551C236.866 12.0529 236.908 11.817 236.908 11.5473C236.908 11.0755 236.696 10.6879 236.273 10.3846C235.866 10.0812 235.23 9.92958 234.366 9.92958C233.62 9.92958 232.975 10.0475 232.433 10.2835C231.907 10.5025 231.509 10.7974 231.238 11.1682C230.967 11.5389 230.831 11.9181 230.831 12.3057C230.831 12.7101 230.975 13.0303 231.263 13.2662C231.568 13.5021 232.119 13.7633 232.916 14.0498L236.476 15.3137C237.307 15.617 237.934 16.0383 238.358 16.5775C238.782 17.1168 238.994 17.8161 238.994 18.6756C238.994 19.9057 238.604 20.9253 237.824 21.7341C237.044 22.543 235.857 22.9475 234.264 22.9475Z" fill="#141213"/>
<path d="M201.082 21.9364L199.302 22.1891V22.6947H205.15V22.1891L203.625 21.9364V13.2156C204.184 12.3899 204.82 11.699 205.532 11.1429C206.261 10.5699 207.015 10.2835 207.795 10.2835C208.541 10.2835 209.092 10.5278 209.448 11.0165C209.804 11.4884 209.982 12.1624 209.982 13.0387V21.9364L208.456 22.1891V22.6947H214.305V22.1891L212.525 21.9364V12.9882C212.525 11.7917 212.169 10.8901 211.457 10.2835C210.762 9.67681 209.804 9.37348 208.583 9.37348C207.6 9.37348 206.685 9.64311 205.837 10.1824C204.989 10.7048 204.252 11.421 203.625 12.3309V9.60098H199.302V10.1065L201.082 10.3593V21.9364Z" fill="#141213"/>
<path fill-rule="evenodd" clip-rule="evenodd" d="M189.625 22.9475C188.371 22.9475 187.235 22.6694 186.218 22.1133C185.201 21.5403 184.395 20.7399 183.802 19.7119C183.209 18.684 182.912 17.496 182.912 16.1478C182.912 14.7997 183.2 13.6201 183.777 12.609C184.37 11.581 185.158 10.789 186.141 10.2329C187.142 9.65996 188.252 9.37348 189.473 9.37348C190.541 9.37348 191.498 9.6094 192.346 10.0812C193.194 10.5531 193.855 11.2103 194.329 12.0529C194.804 12.8786 195.05 13.8307 195.067 14.9092H185.709V17.4117C185.709 18.8946 186.04 20.0995 186.701 21.0264C187.379 21.9364 188.354 22.3914 189.625 22.3914C190.795 22.3914 191.829 22.0627 192.727 21.4055C193.626 20.7483 194.177 19.8973 194.38 18.8525H194.965C194.728 20.0995 194.126 21.0938 193.16 21.8353C192.193 22.5767 191.015 22.9475 189.625 22.9475ZM192.27 14.2773C192.27 12.8112 192.041 11.7243 191.583 11.0165C191.125 10.2919 190.413 9.92958 189.447 9.92958C188.311 9.92958 187.43 10.3256 186.803 11.1176C186.175 11.9096 185.819 12.9629 185.735 14.2773H192.27Z" fill="#141213"/>
<path d="M157.68 21.9364L155.9 22.1891V22.6947H161.748V22.1891L160.222 21.9364V12.8112C160.748 12.0697 161.333 11.4631 161.977 10.9912C162.638 10.5194 163.316 10.2835 164.011 10.2835C164.74 10.2835 165.266 10.5194 165.588 10.9912C165.91 11.4631 166.071 12.1456 166.071 13.0387V21.9364L164.545 22.1891V22.6947H170.165V22.1891L168.639 21.9364V12.8112C169.165 12.0697 169.75 11.4631 170.394 10.9912C171.055 10.5194 171.733 10.2835 172.428 10.2835C173.157 10.2835 173.683 10.5194 174.005 10.9912C174.327 11.4631 174.488 12.1456 174.488 13.0387V21.9364L172.962 22.1891V22.6947H178.811V22.1891L177.031 21.9364V12.9882C177.031 11.7748 176.692 10.8733 176.013 10.2835C175.352 9.67681 174.42 9.37348 173.216 9.37348C172.284 9.37348 171.428 9.61783 170.648 10.1065C169.868 10.5784 169.173 11.2272 168.563 12.0529C168.393 11.1597 167.978 10.4941 167.317 10.056C166.673 9.60098 165.834 9.37348 164.799 9.37348C163.901 9.37348 163.062 9.60098 162.282 10.056C161.519 10.511 160.833 11.1345 160.222 11.9265V9.60098H155.9V10.1065L157.68 10.3593V21.9364Z" fill="#141213"/>
<path fill-rule="evenodd" clip-rule="evenodd" d="M145.003 22.9475C143.782 22.9475 142.672 22.6694 141.672 22.1133C140.672 21.5403 139.875 20.7399 139.282 19.7119C138.705 18.6671 138.417 17.4791 138.417 16.1478C138.417 14.8166 138.705 13.6369 139.282 12.609C139.875 11.581 140.672 10.789 141.672 10.2329C142.672 9.65996 143.782 9.37348 145.003 9.37348C146.224 9.37348 147.334 9.65996 148.334 10.2329C149.334 10.789 150.123 11.581 150.699 12.609C151.292 13.6369 151.589 14.8166 151.589 16.1478C151.589 17.4791 151.292 18.6671 150.699 19.7119C150.123 20.7399 149.334 21.5403 148.334 22.1133C147.334 22.6694 146.224 22.9475 145.003 22.9475ZM145.003 22.3914C146.258 22.3914 147.198 21.9364 147.826 21.0264C148.47 20.1164 148.792 18.9115 148.792 17.4117V14.884C148.792 13.3842 148.47 12.1877 147.826 11.2946C147.198 10.3846 146.258 9.92958 145.003 9.92958C143.749 9.92958 142.799 10.3846 142.155 11.2946C141.528 12.1877 141.214 13.3842 141.214 14.884V17.4117C141.214 18.9115 141.528 20.1164 142.155 21.0264C142.799 21.9364 143.749 22.3914 145.003 22.3914Z" fill="#141213"/>
<path d="M55.9401 40C55.5586 39.6524 55.1613 39.3523 54.7481 39.0995C54.3349 38.8467 53.9058 38.6203 53.4608 38.4202C53.2383 38.6835 52.9972 38.902 52.7377 39.0758C52.4781 39.2496 52.2026 39.3918 51.9112 39.5023C51.5881 39.6287 51.2543 39.7235 50.91 39.7867C50.5656 39.8552 50.2133 39.9078 49.8531 39.9447L49.7975 39.7709C50.0889 39.7077 50.3855 39.605 50.6875 39.4629C50.9947 39.3207 51.2835 39.1469 51.5536 38.9415C51.7867 38.7625 51.988 38.565 52.1576 38.3491C52.3324 38.1332 52.4622 37.8988 52.5469 37.646H49.9008V37.4012H52.6105C52.6423 37.2853 52.6635 37.1431 52.6741 36.9746C52.6847 36.8061 52.6926 36.6507 52.6979 36.5086H49.8928V36.2716H52.7138V35.3553H50.2425V35.1104H52.7138V34.2415H50.0915V33.9966H51.7682C51.7046 33.8439 51.6278 33.6885 51.5377 33.5306C51.453 33.3726 51.3603 33.2199 51.2596 33.0724L51.7046 32.8354C51.9642 32.925 52.2132 33.0276 52.4516 33.1435C52.69 33.2541 52.9204 33.3884 53.1429 33.5464L52.3721 33.9966H53.8899C54.0488 33.628 54.1654 33.2357 54.2395 32.8196L55.8209 33.1514C55.6301 33.3199 55.4288 33.4779 55.2169 33.6254C55.0103 33.7675 54.7958 33.8913 54.5733 33.9966H56.6234V34.2415H54.0647V35.1104H56.4566V35.3553H54.0647V36.2716H56.7824V36.5086H54.0409C54.0356 36.6507 54.0223 36.8035 54.0011 36.9667C53.9852 37.1247 53.9614 37.2695 53.9296 37.4012H56.7824V37.646H53.866C53.8554 37.6882 53.8369 37.7408 53.8104 37.804C53.7892 37.8672 53.7654 37.9199 53.7389 37.962C54.0144 38.0041 54.2978 38.0568 54.5892 38.12C54.8805 38.1779 55.1666 38.2437 55.4474 38.3175C55.7281 38.3859 55.9983 38.4623 56.2579 38.5466C56.5175 38.6255 56.7532 38.7098 56.9651 38.7993L55.9401 40Z" fill="#141213"/>
<path d="M80.566 33.6096C80.3541 33.7043 80.1395 33.7886 79.9223 33.8623C79.7051 33.9361 79.4799 33.9992 79.2469 34.0519C78.9767 34.1098 78.7065 34.1546 78.4363 34.1862C78.1662 34.2178 77.8907 34.2389 77.6099 34.2494L77.5781 34.123C77.9595 33.9755 78.3118 33.7991 78.635 33.5938C78.9634 33.3831 79.2707 33.133 79.5568 32.8433L80.566 33.6096Z" fill="#141213"/>
<path d="M80.6534 34.7391C80.2243 34.9182 79.7687 35.0551 79.2866 35.1499C79.0376 35.2026 78.786 35.2447 78.5317 35.2763C78.2774 35.3026 78.0205 35.3263 77.7609 35.3474L77.7291 35.2052C78.0999 35.0525 78.4575 34.8813 78.8019 34.6917C79.1515 34.4969 79.4853 34.2626 79.8031 33.9887L80.6534 34.7391Z" fill="#141213"/>
<path fill-rule="evenodd" clip-rule="evenodd" d="M76.7835 36.548C76.7729 36.5165 76.757 36.4849 76.7358 36.4533L76.6881 36.3585H73.7877V36.1215C73.9307 36.0162 74.0605 35.9082 74.1771 35.7976C74.2936 35.687 74.3942 35.5659 74.479 35.4343H73.6923V35.1894H74.1055V33.104H77.594V33.3489H75.2975V33.7833H77.3238V34.0203H75.2975V34.4548H77.3318V34.6917H75.2975V35.1894H77.594V35.4343H76.7517C76.9159 35.508 77.0775 35.5975 77.2364 35.7028C77.3953 35.8029 77.5463 35.9135 77.6894 36.0346L76.7835 36.548ZM76.5292 36.1215C76.4815 36.032 76.4259 35.9398 76.3623 35.845C76.2987 35.745 76.2299 35.6502 76.1557 35.5607L76.402 35.4343H75.9571C75.6021 35.7081 75.2207 35.9372 74.8128 36.1215H76.5292Z" fill="#141213"/>
<path fill-rule="evenodd" clip-rule="evenodd" d="M80.7249 35.9951C80.5024 36.0846 80.264 36.1636 80.0097 36.2321C79.7554 36.3005 79.5197 36.3506 79.3025 36.3822C79.4349 36.4506 79.5594 36.527 79.676 36.6112C79.7978 36.6955 79.917 36.785 80.0336 36.8798L79.6998 37.0852H80.6693V37.3301H78.7542L79.7634 37.9067C79.6521 38.0226 79.5356 38.1279 79.4137 38.2227C79.2919 38.3175 79.1674 38.407 79.0403 38.4913C79.5594 38.665 80.068 38.8546 80.566 39.06L79.6601 40C79.4164 39.8157 79.1674 39.6472 78.9131 39.4945C78.6588 39.3417 78.3966 39.1969 78.1264 39.06C77.5914 39.2917 77.0378 39.476 76.4656 39.6129C75.8935 39.7499 75.3054 39.8499 74.7015 39.9131L74.6697 39.7867C75.0988 39.634 75.52 39.4655 75.9332 39.2812C76.3464 39.0969 76.7464 38.873 77.1331 38.6097C76.9477 38.5202 76.757 38.4386 76.561 38.3649C76.365 38.2859 76.1663 38.2122 75.965 38.1437C75.663 38.5071 75.316 38.8362 74.924 39.1311C74.5373 39.4207 74.1294 39.6682 73.7003 39.8736L73.6129 39.763C73.9837 39.3891 74.2936 39.01 74.5426 38.6255C74.7916 38.2358 74.9876 37.804 75.1306 37.3301H73.6844V37.0852H75.2021C75.2233 37.0115 75.2472 36.9167 75.2737 36.8008C75.3054 36.685 75.3293 36.577 75.3452 36.477L76.6722 36.5796C76.6563 36.6639 76.6325 36.7561 76.6007 36.8561C76.5689 36.9509 76.5398 37.0273 76.5133 37.0852H78.7383C78.7012 36.9799 78.6588 36.8746 78.6111 36.7692C78.5688 36.6586 78.5158 36.556 78.4522 36.4612C78.288 36.4717 78.1211 36.4796 77.9516 36.4849C77.7821 36.4901 77.6152 36.4875 77.451 36.477L77.443 36.3427C77.9251 36.211 78.3728 36.0504 78.786 35.8608C79.1992 35.6712 79.5886 35.4343 79.9541 35.1499L80.7249 35.9951ZM76.4179 37.3301C76.3968 37.3827 76.3676 37.4459 76.3305 37.5197C76.2987 37.5881 76.2696 37.6434 76.2431 37.6855C76.3756 37.7171 76.5133 37.754 76.6563 37.7961C76.8047 37.833 76.9477 37.8725 77.0854 37.9146C77.2285 37.9515 77.3636 37.9883 77.4907 38.0252C77.6231 38.0621 77.737 38.0937 77.8324 38.12C77.9595 37.9989 78.0867 37.8698 78.2138 37.7329C78.341 37.596 78.4602 37.4617 78.5714 37.3301H76.4179Z" fill="#141213"/>
<path d="M100.313 35.3316V35.5686H104.564V35.3316H103.078V34.123H104.373V33.8781H103.078V32.9855H101.695V33.8781H100.464V34.123H101.703V35.3316H100.313Z" fill="#141213"/>
<path d="M103.984 38.586V36.9193H104.58V36.6744H103.984V35.8766H102.657V36.6744H100.297V36.9193H100.766L100.535 37.1405C100.71 37.3775 100.866 37.6355 101.004 37.9146C101.142 38.1885 101.264 38.4597 101.37 38.7282L102.427 37.9541C102.209 37.754 101.976 37.5644 101.727 37.3854C101.484 37.2063 101.237 37.051 100.988 36.9193H102.657V38.5623C102.657 38.8415 102.58 39.0363 102.427 39.1469C102.278 39.2522 102.072 39.2812 101.807 39.2338C101.658 39.2022 101.521 39.1469 101.393 39.0679C101.266 38.9836 101.158 38.8757 101.068 38.744L100.917 38.8625C101.007 39.0152 101.126 39.1653 101.274 39.3128C101.428 39.4602 101.582 39.5787 101.735 39.6682C101.889 39.7578 102.056 39.821 102.236 39.8578C102.416 39.8947 102.596 39.9078 102.776 39.8973C103.168 39.8762 103.462 39.7578 103.658 39.5418C103.875 39.3154 103.984 38.9968 103.984 38.586Z" fill="#141213"/>
<path fill-rule="evenodd" clip-rule="evenodd" d="M99.0016 38.7914V39.2496H100.122V33.4832H97.5633V39.3049H98.6679V38.7914H99.0016ZM98.6679 33.7201H99.0016V35.8608H98.6679V33.7201ZM98.6679 36.1057H99.0016V38.5466H98.6679V36.1057Z" fill="#141213"/>
<path d="M128.221 38.9573C128.221 39.1048 128.191 39.239 128.133 39.3602C128.075 39.476 127.995 39.5787 127.895 39.6682C127.794 39.7578 127.675 39.8236 127.537 39.8657C127.405 39.9131 127.262 39.9368 127.108 39.9368C126.965 39.9315 126.825 39.9078 126.687 39.8657C126.549 39.8236 126.425 39.763 126.313 39.684C126.218 39.6103 126.131 39.526 126.051 39.4313C125.972 39.3365 125.908 39.2364 125.86 39.1311L125.98 39.0205C126.033 39.0784 126.096 39.1364 126.17 39.1943C126.245 39.2522 126.321 39.2943 126.401 39.3207C126.554 39.3786 126.687 39.3681 126.798 39.2891C126.851 39.2575 126.894 39.2127 126.925 39.1548C126.957 39.0969 126.973 39.0284 126.973 38.9494V32.9618H128.221V38.9573Z" fill="#141213"/>
<path d="M125.654 38.2464V33.4911H126.703V38.2464H125.654Z" fill="#141213"/>
<path d="M123.945 34.3758C123.744 34.6233 123.519 34.8603 123.27 35.0867C123.026 35.3079 122.761 35.5106 122.475 35.6949H123.508C123.62 35.5422 123.72 35.3869 123.81 35.2289C123.9 35.0709 123.985 34.9076 124.065 34.7391L125.296 35.1104C125.079 35.4158 124.843 35.7002 124.589 35.9635C124.34 36.2216 124.073 36.4612 123.786 36.6823C123.416 36.9667 123.024 37.2142 122.61 37.4249C122.202 37.6355 121.784 37.8093 121.355 37.9462L121.291 37.8198C121.673 37.5776 122.041 37.2958 122.396 36.9746C122.751 36.6534 123.066 36.3058 123.341 35.9319H121.522V35.6949C121.744 35.5054 121.935 35.3 122.094 35.0788C122.253 34.8524 122.391 34.618 122.507 34.3758H121.363V34.1309H123.024C122.934 33.9518 122.828 33.7807 122.706 33.6174C122.584 33.4542 122.451 33.2962 122.308 33.1435L122.69 32.8196C122.976 32.9197 123.259 33.0276 123.54 33.1435C123.821 33.2541 124.094 33.3884 124.359 33.5464L123.675 34.1309H125.487V34.3758H123.945Z" fill="#141213"/>
<path d="M124.812 39.9842C124.7 39.7104 124.576 39.4655 124.438 39.2496C124.306 39.0337 124.141 38.8046 123.945 38.5623C123.14 39.1785 122.282 39.6393 121.371 39.9447L121.307 39.8104C121.652 39.5734 121.983 39.3128 122.3 39.0284C122.624 38.7388 122.926 38.4307 123.206 38.1042C123.439 37.8304 123.649 37.5486 123.834 37.259C124.025 36.9693 124.184 36.6692 124.311 36.3585L125.551 36.8403C125.397 37.0773 125.222 37.309 125.026 37.5354C124.835 37.7566 124.631 37.9699 124.414 38.1753C124.902 38.3912 125.363 38.6703 125.797 39.0126L124.812 39.9842Z" fill="#141213"/>
<path d="M0 36.1465H37.0832V36.6731H0V36.1465Z" fill="#141213"/>
<path d="M240 36.1465L140.935 36.1465V36.6731L240 36.6731V36.1465Z" fill="#141213"/>
</g>
</g>
</svg>
