<svg width="22" height="21" viewBox="0 0 22 21" fill="none" xmlns="http://www.w3.org/2000/svg">
<path d="M10.9897 20.9911C16.685 20.9911 21.3859 16.2902 21.3859 10.6049C21.3859 4.91964 16.6749 0.21875 10.9796 0.21875C5.29436 0.21875 0.603516 4.91964 0.603516 10.6049C0.603516 16.2902 5.30441 20.9911 10.9897 20.9911ZM5.92718 11.8705C5.47517 11.8705 5.1236 11.519 5.1236 11.067C5.1236 10.615 5.47517 10.2634 5.92718 10.2634H10.1861V4.49777C10.1861 4.04576 10.5377 3.6942 10.9796 3.6942C11.4417 3.6942 11.7932 4.04576 11.7932 4.49777V11.067C11.7932 11.519 11.4417 11.8705 10.9796 11.8705H5.92718Z" fill="#1C1C1E"/>
</svg>
