<svg width="32" height="32" viewBox="0 0 32 32" fill="none" xmlns="http://www.w3.org/2000/svg">
<g id="icon/Facebook">
<path id="Vector" d="M12.0845 24.4515C11.9249 22.376 11.9249 20.3006 11.7652 18.0655C11.7652 16.948 11.2863 16.1498 10.0091 16.1498C9.21085 16.1498 8.4126 16.3094 8.25296 15.1919C8.09331 13.755 7.77401 12.1586 8.25296 10.7217C8.25296 10.5621 8.89155 10.2428 9.21085 10.2428C11.6056 10.7218 12.0845 9.44455 12.0845 7.52877C12.0845 2.42004 16.395 -0.293995 21.9827 0.0253013C23.5792 0.184949 23.5792 1.46214 23.5792 2.57968C23.4195 3.69721 24.0581 5.29371 21.9827 5.29371C20.2266 5.13406 18.9494 5.77267 18.9494 7.84809C18.9494 9.28492 19.109 10.4024 20.8651 10.5621C23.4195 10.7217 22.9406 12.4779 22.9406 14.234C23.1002 16.1498 22.1423 16.7883 20.3862 16.7883C18.6301 16.7883 18.3108 17.7462 18.3108 19.3427C18.3108 22.855 18.3108 26.2076 18.1511 29.7198C17.9915 31.9549 17.5125 32.1145 14.4792 31.9549C12.4038 31.9549 12.0845 30.997 12.2442 29.2409C11.9249 27.8041 11.9249 26.2076 12.0845 24.4515Z" fill="#141213"/>
</g>
</svg>
