<svg width="32" height="32" viewBox="0 0 32 32" fill="none" xmlns="http://www.w3.org/2000/svg">
<g id="icon/hamberger">
<path id="line.3.horizontal" d="M6.60812 12.009H25.3816C25.8838 12.009 26.2956 11.5972 26.2956 11.0949C26.2956 10.5927 25.8838 10.1909 25.3816 10.1909H6.60812C6.10589 10.1909 5.7041 10.5927 5.7041 11.0949C5.7041 11.5871 6.10589 12.009 6.60812 12.009ZM6.60812 16.5291H25.3816C25.8838 16.5291 26.2956 16.1173 26.2956 15.6251C26.2956 15.1128 25.8838 14.701 25.3816 14.701H6.60812C6.10589 14.701 5.7041 15.1128 5.7041 15.6251C5.7041 16.1173 6.10589 16.5291 6.60812 16.5291ZM6.60812 21.0592H25.3816C25.8838 21.0592 26.2956 20.6474 26.2956 20.1351C26.2956 19.6329 25.8838 19.2311 25.3816 19.2311H6.60812C6.10589 19.2311 5.7041 19.6429 5.7041 20.1351C5.7041 20.6373 6.10589 21.0592 6.60812 21.0592Z" fill="white"/>
</g>
</svg>
