<svg width="32" height="32" viewBox="0 0 32 32" fill="none" xmlns="http://www.w3.org/2000/svg">
    <path
        d="M5.8252 12.7823C5.8252 17.0714 9.43122 21.3102 15.0361 24.9263C15.3475 25.1272 15.7292 25.3281 15.9904 25.3281C16.2515 25.3281 16.6332 25.1272 16.9446 24.9263C22.5596 21.3102 26.1556 17.0714 26.1556 12.7823C26.1556 9.07582 23.5942 6.50439 20.3096 6.50439C18.391 6.50439 16.8944 7.37828 15.9904 8.70417C15.1064 7.38832 13.5997 6.50439 11.6812 6.50439C8.38658 6.50439 5.8252 9.07582 5.8252 12.7823ZM7.89439 12.7723C7.89439 10.241 9.5618 8.52337 11.8018 8.52337C13.6098 8.52337 14.6243 9.61823 15.2571 10.5725C15.5384 10.9843 15.7292 11.1149 15.9904 11.1149C16.2616 11.1149 16.4323 10.9743 16.7236 10.5725C17.4067 9.63832 18.381 8.52337 20.179 8.52337C22.429 8.52337 24.0964 10.241 24.0964 12.7723C24.0964 16.308 20.4201 20.2254 16.1812 23.0379C16.0908 23.0981 16.0306 23.1383 15.9904 23.1383C15.9502 23.1383 15.8899 23.0981 15.8096 23.0379C11.5707 20.2254 7.89439 16.308 7.89439 12.7723Z"
        fill="white" />
</svg>