<svg width="32" height="32" viewBox="0 0 32 32" fill="none" xmlns="http://www.w3.org/2000/svg">
<g id="icon/Instagram">
<path id="Vector" d="M15.3395 30.8835C12.652 30.8835 9.96456 31.0445 7.43519 30.8835C3.79921 30.5617 2.37643 29.2745 1.74408 25.4128C0.953651 20.9076 0.637489 16.5632 1.11175 12.0579C1.26983 10.4489 1.42791 8.67892 1.74408 7.06989C2.21834 3.69092 3.64112 2.24279 6.96093 1.43827C8.3837 1.11646 9.6484 0.955542 11.0712 1.11644C14.0748 1.27735 17.0784 1.27734 20.0821 0.955532C21.5048 0.794629 22.7695 0.955542 24.1923 1.11644C26.8798 1.43825 28.7768 2.88641 29.093 5.62177C30.0415 12.3797 30.8319 19.1376 29.5672 25.8955C28.9349 29.1136 27.5121 30.4008 24.3504 31.0445C21.5048 31.2054 18.5012 31.0445 15.3395 30.8835ZM15.9718 9.32252C12.3358 9.16162 9.17412 11.897 8.85795 15.276C8.54178 19.4594 11.0712 22.1948 15.3395 22.5166C18.6593 22.6775 21.821 19.7813 22.1372 16.0805C22.4534 12.7015 19.6078 9.48342 15.9718 9.32252ZM25.7732 6.74806C25.6151 5.78264 25.1408 5.13903 24.0342 5.13903C22.7695 5.13903 22.1372 5.94356 22.1372 7.06989C22.1372 8.19621 22.7695 9.0007 24.0342 9.0007C25.2989 8.83979 25.7732 8.03528 25.7732 6.74806Z" fill="#141213"/>
</g>
</svg>
