<svg width="24" height="24" viewBox="0 0 24 24" fill="none" xmlns="http://www.w3.org/2000/svg">
<path d="M9.88393 16.9848L13.4774 18.9887C13.6582 19.0866 13.8089 19.1619 13.9972 19.2071V6.69402L10.5017 4.58465C10.2757 4.44904 10.0647 4.35111 9.88393 4.30591V16.9848ZM4.06055 17.9942C4.06055 18.6497 4.47489 19.0113 5.07757 19.0113C5.29604 19.0113 5.52204 18.9435 5.77818 18.8079L8.77651 17.1806V4.38878C8.61077 4.45658 8.4149 4.53945 8.2115 4.65998L4.80636 6.59609C4.29408 6.88236 4.06055 7.28917 4.06055 7.86171V17.9942ZM15.0971 19.1695C15.1875 19.1469 15.2779 19.1092 15.3608 19.0489L19.1727 16.8944C19.7001 16.6005 19.9411 16.2013 19.9411 15.6287V5.54893C19.9411 4.86339 19.5193 4.52438 18.8789 4.52438C18.6454 4.52438 18.3968 4.59218 18.1331 4.73532L15.0971 6.42282V19.1695Z" fill="#1C1C1E"/>
</svg>
