<svg width="16" height="16" viewBox="0 0 16 16" fill="none" xmlns="http://www.w3.org/2000/svg">
    <path
        d="M6.58929 11.3232L8.98493 12.6591C9.10547 12.7244 9.20592 12.7746 9.33147 12.8048V4.46268L7.00112 3.05643C6.85045 2.96603 6.70982 2.90074 6.58929 2.87061V11.3232ZM2.70703 11.9962C2.70703 12.4331 2.98326 12.6742 3.38504 12.6742C3.53069 12.6742 3.68136 12.629 3.85212 12.5386L5.851 11.4538V2.92585C5.74051 2.97105 5.60993 3.0263 5.47433 3.10665L3.20424 4.39739C2.86272 4.58824 2.70703 4.85944 2.70703 5.24114V11.9962ZM10.0647 12.7796C10.125 12.7646 10.1853 12.7395 10.2405 12.6993L12.7818 11.2629C13.1334 11.067 13.2941 10.8009 13.2941 10.4192V3.69929C13.2941 3.24226 13.0128 3.01625 12.5859 3.01625C12.4302 3.01625 12.2645 3.06145 12.0887 3.15688L10.0647 4.28188V12.7796Z"
        fill="#1C1C1E" />
</svg>