<svg width="20" height="20" viewBox="0 0 20 20" fill="none" xmlns="http://www.w3.org/2000/svg">
<path d="M5.72126 14.2154C8.68443 17.1886 12.2905 19.4788 15.2335 19.4788C16.5494 19.4788 17.7045 19.0167 18.6286 17.9922C19.171 17.3895 19.5025 16.6964 19.5025 16.0033C19.5025 15.471 19.2916 14.9486 18.7793 14.587L15.6956 12.3973C15.2034 12.0558 14.8016 11.8951 14.44 11.8951C13.9679 11.8951 13.546 12.1562 13.084 12.6183L12.3608 13.3415C12.2402 13.452 12.0996 13.5022 11.969 13.5022C11.8083 13.5022 11.6576 13.4419 11.5572 13.3817C10.9244 13.0402 9.83957 12.1161 8.8351 11.1116C7.83064 10.1071 6.89648 9.03235 6.56501 8.38949C6.50474 8.279 6.45452 8.13837 6.45452 7.97766C6.45452 7.85712 6.4947 7.7165 6.60519 7.59596L7.3284 6.86271C7.78041 6.39061 8.05162 5.97878 8.05162 5.50668C8.05162 5.13503 7.8909 4.73324 7.54939 4.2511L5.3697 1.19753C4.99805 0.675206 4.47573 0.454224 3.90318 0.454224C3.22015 0.454224 2.53711 0.755563 1.94448 1.32811C0.940011 2.2723 0.498047 3.44753 0.498047 4.74329C0.498047 7.68637 2.75809 11.2522 5.72126 14.2154Z" fill="#1C1C1E"/>
</svg>
