<svg width="62" height="74" viewBox="0 0 62 74" fill="none" xmlns="http://www.w3.org/2000/svg">
<path id="Vector" d="M5.71584 12.0439C6.6809 15.2013 10.5316 16.8367 12.6274 16.2052C14.9001 15.5208 17.0092 12.0893 16.046 8.93191C15.0809 5.77455 11.9878 3.91039 9.13449 4.77063C6.28308 5.63087 4.75268 8.88654 5.71584 12.0439ZM4.3815 12.4466C3.16709 8.47249 5.0934 4.37359 8.68336 3.29215C12.2733 2.21071 16.1659 4.55509 17.3803 8.52921C18.1474 11.04 17.3689 13.6831 15.9718 15.5094C15.14 16.5965 14.9991 18.0845 15.6748 19.2756C16.2668 20.3173 17.3423 21.4177 19.2058 22.4481L19.2248 22.4424C20.3307 22.847 22.4208 23.1968 24.1948 23.6032C24.1948 23.6032 26.6503 26.598 30.2973 31.1166L27.4973 34.6691C27.385 34.8147 27.2765 34.9527 27.1642 35.0983L16.6113 23.2383L16.5942 23.244L11.9535 18.5931C11.5024 18.1412 10.939 17.8084 10.3165 17.661C7.89723 17.0938 5.23997 15.2504 4.38341 12.4485L4.3815 12.4466ZM61.4116 73.5841L31.2453 39.6812L34.327 36.1249C45.8411 50.507 62.8754 72.2984 61.4116 73.5841ZM55.3281 1.88174C56.5996 1.19733 58.6953 1.37127 57.9206 0.499682C57.1459 -0.3719 55.5755 -0.160149 54.0699 1.5868C53.4569 2.29768 52.9525 2.82138 52.6518 3.1201C52.5204 3.07284 52.391 3.02179 52.2559 2.98209C48.6526 1.9498 44.7904 4.34523 43.6312 8.33636C42.8717 10.9511 43.7778 13.685 45.2986 15.4943C46.1666 16.5266 46.3151 17.9956 45.687 19.1886C45.1216 20.2625 44.0404 21.3628 42.097 22.3138H42.0989C40.9987 22.7335 38.9144 23.1098 37.1441 23.539L28.0417 35.0888C16.7294 49.5768 -0.92539 72.703 0.591681 74L44.7276 23.0682L49.3987 18.2565C49.8156 17.8255 50.3371 17.4984 50.9177 17.3452C53.3028 16.7194 55.8763 14.8534 56.6814 12.0779C57.6598 8.70882 56.394 5.28866 53.8091 3.68162C53.7044 3.17871 54.2964 2.43569 55.3281 1.88174ZM55.3414 11.6941C54.4201 14.8647 50.5922 16.5512 48.4889 15.9481C46.2066 15.2939 44.05 11.8908 44.9712 8.72016C45.8925 5.54957 48.9609 3.6457 51.8238 4.46623C54.6866 5.28677 56.2627 8.52354 55.3414 11.6941Z" fill="#141213"/>
</svg>
