<svg width="24" height="24" viewBox="0 0 24 24" fill="none" xmlns="http://www.w3.org/2000/svg">
<path d="M7.15597 12.2963C7.16351 12.56 7.26144 12.786 7.46484 12.9894L13.3259 18.7224C13.4992 18.8881 13.7026 18.9785 13.9512 18.9785C14.4559 18.9785 14.8477 18.5868 14.8477 18.082C14.8477 17.841 14.7497 17.615 14.5765 17.4417L9.30301 12.2963L14.5765 7.15095C14.7497 6.97768 14.8477 6.75921 14.8477 6.5106C14.8477 6.00586 14.4559 5.61412 13.9512 5.61412C13.7101 5.61412 13.4992 5.70452 13.3259 5.87026L7.46484 11.6108C7.25391 11.8066 7.15597 12.0326 7.15597 12.2963Z" fill="#1C1C1E"/>
</svg>
