<svg width="28" height="30" viewBox="0 0 28 30" fill="none" xmlns="http://www.w3.org/2000/svg">
<g filter="url(#filter0_d_614_12752)">
<path d="M8.34863 13.6543C8.34863 13.9619 8.46289 14.2256 8.70898 14.4541L15.5469 21.1514C15.7402 21.3447 15.9863 21.4502 16.2764 21.4502C16.8564 21.4502 17.3223 20.9932 17.3223 20.4043C17.3223 20.1143 17.1992 19.8594 17.0059 19.6572L10.8447 13.6543L17.0059 7.65137C17.1992 7.44922 17.3223 7.18555 17.3223 6.9043C17.3223 6.31543 16.8564 5.8584 16.2764 5.8584C15.9863 5.8584 15.7402 5.96387 15.5469 6.15723L8.70898 12.8457C8.46289 13.083 8.34863 13.3467 8.34863 13.6543Z" fill="#1C1C1E"/>
</g>
<defs>
<filter id="filter0_d_614_12752" x="-4" y="0" width="36" height="36" filterUnits="userSpaceOnUse" color-interpolation-filters="sRGB">
<feFlood flood-opacity="0" result="BackgroundImageFix"/>
<feColorMatrix in="SourceAlpha" type="matrix" values="0 0 0 0 0 0 0 0 0 0 0 0 0 0 0 0 0 0 127 0" result="hardAlpha"/>
<feOffset dy="4"/>
<feGaussianBlur stdDeviation="2"/>
<feComposite in2="hardAlpha" operator="out"/>
<feColorMatrix type="matrix" values="0 0 0 0 0 0 0 0 0 0 0 0 0 0 0 0 0 0 0.25 0"/>
<feBlend mode="normal" in2="BackgroundImageFix" result="effect1_dropShadow_614_12752"/>
<feBlend mode="normal" in="SourceGraphic" in2="effect1_dropShadow_614_12752" result="shape"/>
</filter>
</defs>
</svg>
