<svg width="32" height="32" viewBox="0 0 32 32" fill="none" xmlns="http://www.w3.org/2000/svg">
<g id="icon/Twitter">
<path id="Vector" d="M5.72984 19.3796C4.7989 18.4486 3.86795 17.5177 3.12319 16.5868C2.19225 15.2834 0.33036 13.9801 2.93701 12.3044C3.68176 11.7459 3.1232 10.6287 2.93701 9.88393C2.37844 8.20823 2.19225 6.53256 2.19225 3.92591C4.61271 7.46351 7.03317 9.51159 10.5708 10.4425C11.6879 10.8149 12.805 10.8149 14.1084 11.0011C16.3426 11.1873 17.2736 10.0701 17.4597 7.83584C18.0183 2.06398 21.1835 0.202087 26.2106 3.18111C28.0725 4.29825 28.8173 2.62256 30.3068 2.43637C30.8654 3.92588 31.7963 5.41539 30.3068 7.0911C29.562 7.83585 29.7482 8.953 29.7482 10.0701C29.562 18.821 24.1626 26.0824 15.784 28.689C13.1774 29.62 10.3846 30.1785 7.40554 30.1785C4.98508 29.9923 2.75081 29.62 0.888916 27.1996C3.30937 26.8272 6.10222 28.1305 7.77792 25.3377C6.66079 23.662 3.68176 23.1034 3.49557 20.3105C3.86794 19.3796 5.17128 20.3105 5.72984 19.3796Z" fill="#141213"/>
</g>
</svg>
